<svg width="24" height="24" viewBox="0 0 24 24" fill="none" xmlns="http://www.w3.org/2000/svg">
<mask id="mask0_44131_3188" style="mask-type:alpha" maskUnits="userSpaceOnUse" x="0" y="0" width="24" height="24">
<rect width="24" height="24" fill="#D9D9D9"/>
</mask>
<g mask="url(#mask0_44131_3188)">
<path d="M2.34117 24.0149C1.69725 24.0149 1.14601 23.7856 0.68746 23.327C0.228909 22.8685 -0.000366211 22.3173 -0.000366211 21.6733V5.28259C-0.000366211 4.63866 0.228909 4.08743 0.68746 3.62888C1.14601 3.17033 1.69725 2.94105 2.34117 2.94105H12.7903L10.4487 5.28259H2.34117V21.6733H18.7319V13.5365L21.0734 11.195V21.6733C21.0734 22.3173 20.8442 22.8685 20.3856 23.327C19.9271 23.7856 19.3758 24.0149 18.7319 24.0149H2.34117ZM15.4245 3.61424L17.0928 5.25332L9.36577 12.9804V14.6487H11.0048L18.7612 6.89239L20.4295 8.53147L12.6732 16.2878C12.4585 16.5024 12.2098 16.6732 11.9268 16.8C11.6439 16.9268 11.3463 16.9903 11.0341 16.9903H8.19501C7.86329 16.9903 7.58523 16.8781 7.36083 16.6537C7.13644 16.4293 7.02424 16.1512 7.02424 15.8195V12.9804C7.02424 12.6682 7.08278 12.3706 7.19985 12.0877C7.31693 11.8047 7.48279 11.5559 7.69743 11.3413L15.4245 3.61424ZM20.4295 8.53147L15.4245 3.61424L18.3514 0.687324C18.8197 0.219017 19.3807 -0.0151367 20.0344 -0.0151367C20.6881 -0.0151367 21.2393 0.219017 21.6881 0.687324L23.3272 2.35567C23.776 2.80446 24.0004 3.35082 24.0004 3.99474C24.0004 4.63866 23.776 5.18502 23.3272 5.63382L20.4295 8.53147Z" fill="white"/>
</g>
</svg>
