<svg width="113" height="27" viewBox="0 0 113 27" fill="none" xmlns="http://www.w3.org/2000/svg">
<rect width="113" height="27" rx="8" fill="#0038FF"/>
<path d="M25.0455 7.36364H26.4545V15.0682C26.4545 15.8636 26.267 16.5739 25.892 17.1989C25.5208 17.8201 24.9962 18.3106 24.3182 18.6705C23.6402 19.0265 22.8447 19.2045 21.9318 19.2045C21.0189 19.2045 20.2235 19.0265 19.5455 18.6705C18.8674 18.3106 18.3409 17.8201 17.9659 17.1989C17.5947 16.5739 17.4091 15.8636 17.4091 15.0682V7.36364H18.8182V14.9545C18.8182 15.5227 18.9432 16.0284 19.1932 16.4716C19.4432 16.911 19.7992 17.2576 20.2614 17.5114C20.7273 17.7614 21.2841 17.8864 21.9318 17.8864C22.5795 17.8864 23.1364 17.7614 23.6023 17.5114C24.0682 17.2576 24.4242 16.911 24.6705 16.4716C24.9205 16.0284 25.0455 15.5227 25.0455 14.9545V7.36364ZM35.2685 12.2273L34.0639 12.5682C33.9882 12.3674 33.8764 12.1723 33.7287 11.983C33.5848 11.7898 33.3878 11.6307 33.1378 11.5057C32.8878 11.3807 32.5677 11.3182 32.1776 11.3182C31.6435 11.3182 31.1984 11.4413 30.8423 11.6875C30.4901 11.9299 30.3139 12.2386 30.3139 12.6136C30.3139 12.947 30.4351 13.2102 30.6776 13.4034C30.92 13.5966 31.2988 13.7576 31.8139 13.8864L33.1094 14.2045C33.8897 14.3939 34.4711 14.6837 34.8537 15.0739C35.2363 15.4602 35.4276 15.9583 35.4276 16.5682C35.4276 17.0682 35.2836 17.5152 34.9957 17.9091C34.7116 18.303 34.3139 18.6136 33.8026 18.8409C33.2912 19.0682 32.6965 19.1818 32.0185 19.1818C31.1283 19.1818 30.3916 18.9886 29.8082 18.6023C29.2249 18.2159 28.8556 17.6515 28.7003 16.9091L29.973 16.5909C30.0942 17.0606 30.3234 17.4129 30.6605 17.6477C31.0014 17.8826 31.4465 18 31.9957 18C32.6207 18 33.117 17.8674 33.4844 17.6023C33.8556 17.3333 34.0412 17.0114 34.0412 16.6364C34.0412 16.3333 33.9351 16.0795 33.723 15.875C33.5109 15.6667 33.1851 15.5114 32.7457 15.4091L31.2912 15.0682C30.492 14.8788 29.9048 14.5852 29.5298 14.1875C29.1586 13.786 28.973 13.2841 28.973 12.6818C28.973 12.1894 29.1113 11.7538 29.3878 11.375C29.6681 10.9962 30.0488 10.6989 30.5298 10.483C31.0147 10.267 31.5639 10.1591 32.1776 10.1591C33.0412 10.1591 33.7192 10.3485 34.2116 10.7273C34.7079 11.1061 35.0601 11.6061 35.2685 12.2273ZM41.1051 19.1818C40.2642 19.1818 39.5388 18.9962 38.929 18.625C38.3229 18.25 37.8551 17.7273 37.5256 17.0568C37.1998 16.3826 37.0369 15.5985 37.0369 14.7045C37.0369 13.8106 37.1998 13.0227 37.5256 12.3409C37.8551 11.6553 38.3134 11.1212 38.9006 10.7386C39.4915 10.3523 40.1809 10.1591 40.9688 10.1591C41.4233 10.1591 41.8722 10.2348 42.3153 10.3864C42.7585 10.5379 43.1619 10.7841 43.5256 11.125C43.8892 11.4621 44.179 11.9091 44.3949 12.4659C44.6108 13.0227 44.7188 13.7083 44.7188 14.5227V15.0909L37.9915 15.0909V13.9318H43.3551C43.3551 13.4394 43.2566 13 43.0597 12.6136C42.8665 12.2273 42.59 11.9223 42.2301 11.6989C41.8741 11.4754 41.4536 11.3636 40.9688 11.3636C40.4347 11.3636 39.9725 11.4962 39.5824 11.7614C39.196 12.0227 38.8987 12.3636 38.6903 12.7841C38.482 13.2045 38.3778 13.6553 38.3778 14.1364V14.9091C38.3778 15.5682 38.4915 16.1269 38.7188 16.5852C38.9498 17.0398 39.2699 17.3864 39.679 17.625C40.0881 17.8598 40.5634 17.9773 41.1051 17.9773C41.4574 17.9773 41.7756 17.928 42.0597 17.8295C42.3475 17.7273 42.5956 17.5758 42.804 17.375C43.0123 17.1705 43.1733 16.9167 43.2869 16.6136L44.5824 16.9773C44.446 17.4167 44.2169 17.803 43.8949 18.1364C43.5729 18.4659 43.1752 18.7235 42.7017 18.9091C42.2282 19.0909 41.696 19.1818 41.1051 19.1818ZM46.7585 19V10.2727H48.054V11.5909H48.1449C48.304 11.1591 48.5919 10.8087 49.0085 10.5398C49.4252 10.2708 49.8949 10.1364 50.4176 10.1364C50.5161 10.1364 50.6392 10.1383 50.7869 10.142C50.9347 10.1458 51.0464 10.1515 51.1222 10.1591V11.5227C51.0767 11.5114 50.9725 11.4943 50.8097 11.4716C50.6506 11.4451 50.482 11.4318 50.304 11.4318C49.8797 11.4318 49.5009 11.5208 49.1676 11.6989C48.8381 11.8731 48.5767 12.1155 48.3835 12.4261C48.1941 12.733 48.0994 13.0833 48.0994 13.4773V19H46.7585ZM63.7571 10.2727C63.6889 9.69697 63.4124 9.25 62.9276 8.93182C62.4427 8.61364 61.848 8.45455 61.1435 8.45455C60.6283 8.45455 60.1776 8.53788 59.7912 8.70455C59.4086 8.87121 59.1094 9.10038 58.8935 9.39205C58.6813 9.68371 58.5753 10.0152 58.5753 10.3864C58.5753 10.697 58.6491 10.964 58.7969 11.1875C58.9484 11.4072 59.1416 11.5909 59.3764 11.7386C59.6113 11.8826 59.8575 12.0019 60.1151 12.0966C60.3726 12.1875 60.6094 12.2614 60.8253 12.3182L62.0071 12.6364C62.3101 12.7159 62.6473 12.8258 63.0185 12.9659C63.3935 13.1061 63.7514 13.2973 64.0923 13.5398C64.437 13.7784 64.7211 14.0852 64.9446 14.4602C65.1681 14.8352 65.2798 15.2955 65.2798 15.8409C65.2798 16.4697 65.1151 17.0379 64.7855 17.5455C64.4598 18.053 63.9825 18.4564 63.3537 18.7557C62.7287 19.0549 61.9692 19.2045 61.0753 19.2045C60.242 19.2045 59.5204 19.0701 58.9105 18.8011C58.3045 18.5322 57.8272 18.1572 57.4787 17.6761C57.134 17.1951 56.9389 16.6364 56.8935 16H58.348C58.3859 16.4394 58.5336 16.803 58.7912 17.0909C59.0526 17.375 59.3821 17.5871 59.7798 17.7273C60.1813 17.8636 60.6132 17.9318 61.0753 17.9318C61.6132 17.9318 62.0961 17.8447 62.5241 17.6705C62.9522 17.4924 63.2912 17.2462 63.5412 16.9318C63.7912 16.6136 63.9162 16.2424 63.9162 15.8182C63.9162 15.4318 63.8082 15.1174 63.5923 14.875C63.3764 14.6326 63.0923 14.4356 62.7401 14.2841C62.3878 14.1326 62.0071 14 61.598 13.8864L60.1662 13.4773C59.2571 13.2159 58.5374 12.8428 58.0071 12.358C57.4768 11.8731 57.2116 11.2386 57.2116 10.4545C57.2116 9.80303 57.3878 9.23485 57.7401 8.75C58.0961 8.26136 58.5734 7.88258 59.1719 7.61364C59.7741 7.34091 60.4465 7.20455 61.1889 7.20455C61.9389 7.20455 62.6056 7.33901 63.1889 7.60795C63.7723 7.87311 64.2344 8.23674 64.5753 8.69886C64.92 9.16098 65.1018 9.68561 65.1207 10.2727H63.7571ZM71.2102 10.2727V11.4091L66.6875 11.4091V10.2727L71.2102 10.2727ZM68.0057 8.18182L69.3466 8.18182V16.5C69.3466 16.8788 69.4015 17.1629 69.5114 17.3523C69.625 17.5379 69.7689 17.6629 69.9432 17.7273C70.1212 17.7879 70.3087 17.8182 70.5057 17.8182C70.6534 17.8182 70.7746 17.8106 70.8693 17.7955C70.964 17.7765 71.0398 17.7614 71.0966 17.75L71.3693 18.9545C71.2784 18.9886 71.1515 19.0227 70.9886 19.0568C70.8258 19.0947 70.6193 19.1136 70.3693 19.1136C69.9905 19.1136 69.6193 19.0322 69.2557 18.8693C68.8958 18.7064 68.5966 18.4583 68.358 18.125C68.1231 17.7917 68.0057 17.3712 68.0057 16.8636V8.18182ZM76.679 19.1818C75.8911 19.1818 75.1998 18.9943 74.6051 18.6193C74.0142 18.2443 73.5521 17.7197 73.2188 17.0455C72.8892 16.3712 72.7244 15.5833 72.7244 14.6818C72.7244 13.7727 72.8892 12.9792 73.2188 12.3011C73.5521 11.6231 74.0142 11.0966 74.6051 10.7216C75.1998 10.3466 75.8911 10.1591 76.679 10.1591C77.4669 10.1591 78.1563 10.3466 78.7472 10.7216C79.3419 11.0966 79.804 11.6231 80.1335 12.3011C80.4669 12.9792 80.6335 13.7727 80.6335 14.6818C80.6335 15.5833 80.4669 16.3712 80.1335 17.0455C79.804 17.7197 79.3419 18.2443 78.7472 18.6193C78.1563 18.9943 77.4669 19.1818 76.679 19.1818ZM76.679 17.9773C77.2775 17.9773 77.7699 17.8239 78.1562 17.517C78.5426 17.2102 78.8286 16.8068 79.0142 16.3068C79.1998 15.8068 79.2926 15.2652 79.2926 14.6818C79.2926 14.0985 79.1998 13.5549 79.0142 13.0511C78.8286 12.5473 78.5426 12.1402 78.1562 11.8295C77.7699 11.5189 77.2775 11.3636 76.679 11.3636C76.0805 11.3636 75.5881 11.5189 75.2017 11.8295C74.8153 12.1402 74.5294 12.5473 74.3438 13.0511C74.1581 13.5549 74.0653 14.0985 74.0653 14.6818C74.0653 15.2652 74.1581 15.8068 74.3438 16.3068C74.5294 16.8068 74.8153 17.2102 75.2017 17.517C75.5881 17.8239 76.0805 17.9773 76.679 17.9773ZM82.6804 19V10.2727H83.9759V11.5909H84.0668C84.2259 11.1591 84.5137 10.8087 84.9304 10.5398C85.3471 10.2708 85.8168 10.1364 86.3395 10.1364C86.438 10.1364 86.5611 10.1383 86.7088 10.142C86.8565 10.1458 86.9683 10.1515 87.044 10.1591V11.5227C86.9986 11.5114 86.8944 11.4943 86.7315 11.4716C86.5724 11.4451 86.4039 11.4318 86.2259 11.4318C85.8016 11.4318 85.4228 11.5208 85.0895 11.6989C84.7599 11.8731 84.4986 12.1155 84.3054 12.4261C84.116 12.733 84.0213 13.0833 84.0213 13.4773V19H82.6804ZM89.7628 22.2727C89.5355 22.2727 89.3329 22.2538 89.1548 22.2159C88.9768 22.1818 88.8537 22.1477 88.7855 22.1136L89.1264 20.9318C89.4522 21.0152 89.7401 21.0455 89.9901 21.0227C90.2401 21 90.4616 20.8883 90.6548 20.6875C90.8518 20.4905 91.0317 20.1705 91.1946 19.7273L91.4446 19.0455L88.2173 10.2727H89.6719L92.081 17.2273H92.1719L94.581 10.2727H96.0355L92.331 20.2727C92.1643 20.7235 91.9579 21.0966 91.7116 21.392C91.4654 21.6913 91.1795 21.9129 90.8537 22.0568C90.5317 22.2008 90.1681 22.2727 89.7628 22.2727Z" fill="white"/>
</svg>
