<svg width="24" height="24" viewBox="0 0 24 24" fill="none" xmlns="http://www.w3.org/2000/svg">
<path d="M18.4615 3.69207L18.4615 20.3075C18.461 20.7969 18.2664 21.2662 17.9203 21.6124C17.5742 21.9585 17.1049 22.1531 16.6154 22.1536L12.9231 22.1536C12.4336 22.1531 11.9643 21.9585 11.6182 21.6124C11.2721 21.2662 11.0774 20.7969 11.0769 20.3075L11.0769 3.69207C11.0774 3.20259 11.2721 2.7333 11.6182 2.38719C11.9643 2.04107 12.4336 1.84641 12.9231 1.84592L16.6154 1.84592C17.1049 1.84641 17.5742 2.04107 17.9203 2.38719C18.2664 2.7333 18.461 3.20259 18.4615 3.69207ZM12.9231 20.3075L16.6154 20.3075L16.6154 3.69207L12.9231 3.69207L12.9231 20.3075ZM12.9231 3.69207L12.9231 20.3075C12.9226 20.7969 12.7279 21.2662 12.3818 21.6123C12.0357 21.9584 11.5664 22.1531 11.0769 22.1536L7.38462 22.1536C6.89513 22.1531 6.42584 21.9584 6.07973 21.6123C5.73361 21.2662 5.53895 20.7969 5.53846 20.3074L5.53846 3.69206C5.53895 3.20258 5.73361 2.73328 6.07973 2.38717C6.42584 2.04105 6.89513 1.84639 7.38461 1.8459L11.0769 1.8459C11.5664 1.84639 12.0357 2.04105 12.3818 2.38717C12.7279 2.73328 12.9226 3.20259 12.9231 3.69207ZM7.38462 20.3074L11.0769 20.3075L11.0769 3.69207L7.38461 3.69206L7.38462 20.3074ZM7.38461 3.69206L7.38462 20.3074C7.38413 20.7969 7.18946 21.2662 6.84335 21.6123C6.49723 21.9584 6.02794 22.1531 5.53846 22.1536L1.84615 22.1536C1.35667 22.1531 0.887381 21.9584 0.541266 21.6123C0.195151 21.2662 0.000488688 20.7969 -8.07075e-08 20.3074L-8.06989e-07 3.69206C0.000487919 3.20258 0.19515 2.73328 0.541265 2.38717C0.88738 2.04105 1.35667 1.84639 1.84615 1.8459L5.53846 1.8459C6.02794 1.84639 6.49723 2.04105 6.84335 2.38717C7.18946 2.73328 7.38413 3.20258 7.38461 3.69206ZM1.84615 20.3074L5.53846 20.3074L5.53846 3.69206L1.84615 3.69206L1.84615 20.3074Z" fill="#42526E"/>
<path d="M24 3.69228L24 20.3077C23.9995 20.7971 23.8048 21.2664 23.4587 21.6125C23.1126 21.9587 22.6433 22.1533 22.1538 22.1538L18.4615 22.1538C17.9721 22.1533 17.5028 21.9587 17.1567 21.6125C16.8105 21.2664 16.6159 20.7969 16.6154 20.3075L16.6154 3.69207C16.6159 3.20259 16.8105 2.7335 17.1567 2.38739C17.5028 2.04127 17.9721 1.84661 18.4615 1.84612L22.1538 1.84612C22.6433 1.84661 23.1126 2.04127 23.4587 2.38739C23.8048 2.7335 23.9995 3.2028 24 3.69228ZM18.4615 20.3075L22.1538 20.3077L22.1538 3.69228L18.4615 3.69207L18.4615 20.3075Z" fill="#42526E"/>
</svg>
