<svg width="24" height="24" viewBox="0 0 24 24" fill="none" xmlns="http://www.w3.org/2000/svg">
<mask id="mask0_44131_3200" style="mask-type:alpha" maskUnits="userSpaceOnUse" x="0" y="0" width="24" height="24">
<rect width="24" height="24" fill="#D9D9D9"/>
</mask>
<g mask="url(#mask0_44131_3200)">
<path d="M12 19.2C10.88 19.2 9.80995 19.375 8.78995 19.725C7.76995 20.075 6.83995 20.6 5.99995 21.3V21.6H18V21.3C17.16 20.6 16.23 20.075 15.21 19.725C14.19 19.375 13.12 19.2 12 19.2ZM3.59995 20.22C4.67995 19.16 5.93495 18.325 7.36495 17.715C8.79495 17.105 10.34 16.8 12 16.8C13.66 16.8 15.205 17.105 16.635 17.715C18.065 18.325 19.32 19.16 20.4 20.22V4.8H3.59995V20.22ZM12 14.4C10.84 14.4 9.84995 13.99 9.02995 13.17C8.20995 12.35 7.79995 11.36 7.79995 10.2C7.79995 9.04 8.20995 8.05 9.02995 7.23C9.84995 6.41 10.84 6 12 6C13.16 6 14.15 6.41 14.97 7.23C15.79 8.05 16.2 9.04 16.2 10.2C16.2 11.36 15.79 12.35 14.97 13.17C14.15 13.99 13.16 14.4 12 14.4ZM12 12C12.5 12 12.925 11.825 13.275 11.475C13.625 11.125 13.8 10.7 13.8 10.2C13.8 9.7 13.625 9.275 13.275 8.925C12.925 8.575 12.5 8.4 12 8.4C11.5 8.4 11.075 8.575 10.725 8.925C10.375 9.275 10.2 9.7 10.2 10.2C10.2 10.7 10.375 11.125 10.725 11.475C11.075 11.825 11.5 12 12 12ZM3.59995 24C2.93995 24 2.37495 23.765 1.90495 23.295C1.43495 22.825 1.19995 22.26 1.19995 21.6V4.8C1.19995 4.14 1.43495 3.575 1.90495 3.105C2.37495 2.635 2.93995 2.4 3.59995 2.4H4.79995V1.2C4.79995 0.537258 5.33721 0 5.99995 0C6.66269 0 7.19995 0.537258 7.19995 1.2V2.4H16.8V1.2C16.8 0.537258 17.3372 0 18 0C18.6627 0 19.2 0.537259 19.2 1.2V2.4H20.4C21.06 2.4 21.625 2.635 22.095 3.105C22.565 3.575 22.8 4.14 22.8 4.8V21.6C22.8 22.26 22.565 22.825 22.095 23.295C21.625 23.765 21.06 24 20.4 24H3.59995Z" fill="white"/>
</g>
</svg>
