<svg width="220" height="16" viewBox="0 0 220 16" fill="none" xmlns="http://www.w3.org/2000/svg">
<g clip-path="url(#clip0_187493_2657)">
<rect y="4" width="128" height="8" rx="4" fill="#F4F4F4"/>
<rect y="4" width="128" height="8" rx="4" fill="#4589FF"/>
</g>
<path d="M139.903 11V10.233L142.784 7.07955C143.122 6.71023 143.401 6.3892 143.619 6.11648C143.838 5.84091 144 5.58239 144.105 5.34091C144.213 5.09659 144.267 4.84091 144.267 4.57386C144.267 4.26705 144.193 4.00142 144.045 3.77699C143.901 3.55256 143.702 3.37926 143.449 3.2571C143.196 3.13494 142.912 3.07386 142.597 3.07386C142.261 3.07386 141.969 3.14347 141.719 3.28267C141.472 3.41903 141.28 3.6108 141.143 3.85795C141.01 4.10511 140.943 4.39489 140.943 4.72727H139.938C139.938 4.21591 140.055 3.76705 140.291 3.38068C140.527 2.99432 140.848 2.69318 141.254 2.47727C141.663 2.26136 142.122 2.15341 142.631 2.15341C143.142 2.15341 143.595 2.26136 143.99 2.47727C144.385 2.69318 144.695 2.98437 144.919 3.35085C145.143 3.71733 145.256 4.125 145.256 4.57386C145.256 4.89489 145.197 5.20881 145.081 5.51562C144.967 5.8196 144.768 6.15909 144.484 6.53409C144.203 6.90625 143.812 7.3608 143.312 7.89773L141.352 9.99432V10.0625H145.409V11H139.903ZM150.271 1.86364L147.459 12.3125H146.538L149.351 1.86364H150.271ZM151.446 11V10.233L154.327 7.07955C154.665 6.71023 154.944 6.3892 155.162 6.11648C155.381 5.84091 155.543 5.58239 155.648 5.34091C155.756 5.09659 155.81 4.84091 155.81 4.57386C155.81 4.26705 155.736 4.00142 155.588 3.77699C155.444 3.55256 155.245 3.37926 154.992 3.2571C154.739 3.13494 154.455 3.07386 154.14 3.07386C153.804 3.07386 153.512 3.14347 153.262 3.28267C153.015 3.41903 152.823 3.6108 152.686 3.85795C152.553 4.10511 152.486 4.39489 152.486 4.72727H151.48C151.48 4.21591 151.598 3.76705 151.834 3.38068C152.07 2.99432 152.391 2.69318 152.797 2.47727C153.206 2.26136 153.665 2.15341 154.174 2.15341C154.685 2.15341 155.138 2.26136 155.533 2.47727C155.928 2.69318 156.238 2.98437 156.462 3.35085C156.686 3.71733 156.799 4.125 156.799 4.57386C156.799 4.89489 156.74 5.20881 156.624 5.51562C156.51 5.8196 156.311 6.15909 156.027 6.53409C155.746 6.90625 155.355 7.3608 154.855 7.89773L152.895 9.99432V10.0625H156.952V11H151.446ZM167.013 4.45455C166.962 4.02273 166.755 3.6875 166.391 3.44886C166.027 3.21023 165.581 3.09091 165.053 3.09091C164.667 3.09091 164.328 3.15341 164.039 3.27841C163.752 3.40341 163.527 3.57528 163.365 3.79403C163.206 4.01278 163.127 4.26136 163.127 4.53977C163.127 4.77273 163.182 4.97301 163.293 5.14062C163.407 5.3054 163.551 5.44318 163.728 5.55398C163.904 5.66193 164.088 5.75142 164.282 5.82244C164.475 5.89062 164.652 5.94602 164.814 5.98864L165.701 6.22727C165.928 6.28693 166.181 6.36932 166.459 6.47443C166.74 6.57955 167.009 6.72301 167.265 6.90483C167.523 7.08381 167.736 7.31392 167.904 7.59517C168.071 7.87642 168.155 8.22159 168.155 8.63068C168.155 9.10227 168.032 9.52841 167.784 9.90909C167.54 10.2898 167.182 10.5923 166.711 10.8168C166.242 11.0412 165.672 11.1534 165.002 11.1534C164.377 11.1534 163.836 11.0526 163.378 10.8509C162.924 10.6491 162.566 10.3679 162.304 10.0071C162.046 9.64631 161.9 9.22727 161.865 8.75H162.956C162.985 9.07955 163.096 9.35227 163.289 9.56818C163.485 9.78125 163.732 9.94034 164.03 10.0455C164.331 10.1477 164.655 10.1989 165.002 10.1989C165.405 10.1989 165.767 10.1335 166.088 10.0028C166.409 9.86932 166.664 9.68466 166.851 9.44886C167.039 9.21023 167.132 8.93182 167.132 8.61364C167.132 8.32386 167.051 8.08807 166.89 7.90625C166.728 7.72443 166.515 7.5767 166.25 7.46307C165.986 7.34943 165.701 7.25 165.394 7.16477L164.32 6.85795C163.638 6.66193 163.098 6.3821 162.701 6.01847C162.303 5.65483 162.104 5.17898 162.104 4.59091C162.104 4.10227 162.236 3.67614 162.5 3.3125C162.767 2.94602 163.125 2.66193 163.574 2.46023C164.026 2.25568 164.53 2.15341 165.087 2.15341C165.65 2.15341 166.15 2.25426 166.587 2.45597C167.025 2.65483 167.371 2.92756 167.627 3.27415C167.885 3.62074 168.022 4.0142 168.036 4.45455H167.013ZM173.881 8.32386V4.45455H174.887V11H173.881V9.89205H173.813C173.66 10.2244 173.421 10.5071 173.097 10.7401C172.773 10.9702 172.364 11.0852 171.87 11.0852C171.461 11.0852 171.097 10.9957 170.779 10.8168C170.461 10.6349 170.211 10.3622 170.029 9.99858C169.847 9.6321 169.756 9.17045 169.756 8.61364V4.45455H170.762V8.54545C170.762 9.02273 170.896 9.40341 171.163 9.6875C171.433 9.97159 171.776 10.1136 172.194 10.1136C172.444 10.1136 172.698 10.0497 172.957 9.92188C173.218 9.79403 173.437 9.59801 173.613 9.33381C173.792 9.0696 173.881 8.73295 173.881 8.32386ZM176.865 11V2.27273H177.871V5.49432H177.956C178.03 5.38068 178.132 5.2358 178.263 5.05966C178.397 4.88068 178.587 4.72159 178.834 4.58239C179.084 4.44034 179.422 4.36932 179.848 4.36932C180.4 4.36932 180.885 4.5071 181.306 4.78267C181.726 5.05824 182.054 5.44886 182.29 5.95455C182.526 6.46023 182.644 7.05682 182.644 7.74432C182.644 8.4375 182.526 9.03835 182.29 9.54688C182.054 10.0526 181.728 10.4446 181.31 10.723C180.892 10.9986 180.411 11.1364 179.865 11.1364C179.445 11.1364 179.108 11.0668 178.855 10.9276C178.603 10.7855 178.408 10.625 178.272 10.446C178.135 10.2642 178.03 10.1136 177.956 9.99432H177.837V11H176.865ZM177.854 7.72727C177.854 8.22159 177.926 8.65767 178.071 9.03551C178.216 9.41051 178.428 9.70455 178.706 9.91761C178.985 10.1278 179.326 10.233 179.729 10.233C180.15 10.233 180.5 10.1222 180.782 9.90057C181.066 9.67614 181.279 9.375 181.421 8.99716C181.566 8.61648 181.638 8.19318 181.638 7.72727C181.638 7.26705 181.567 6.85227 181.425 6.48295C181.286 6.1108 181.074 5.81676 180.79 5.60085C180.509 5.3821 180.155 5.27273 179.729 5.27273C179.32 5.27273 178.976 5.37642 178.698 5.58381C178.419 5.78835 178.209 6.07528 178.067 6.4446C177.925 6.81108 177.854 7.23864 177.854 7.72727ZM187.029 4.45455V5.30682H183.637V4.45455H187.029ZM184.625 2.88636H185.631V9.125C185.631 9.40909 185.672 9.62216 185.755 9.7642C185.84 9.90341 185.948 9.99716 186.078 10.0455C186.212 10.0909 186.353 10.1136 186.5 10.1136C186.611 10.1136 186.702 10.108 186.773 10.0966C186.844 10.0824 186.901 10.071 186.944 10.0625L187.148 10.9659C187.08 10.9915 186.985 11.017 186.863 11.0426C186.74 11.071 186.586 11.0852 186.398 11.0852C186.114 11.0852 185.836 11.0241 185.563 10.902C185.293 10.7798 185.069 10.5938 184.89 10.3438C184.713 10.0938 184.625 9.77841 184.625 9.39773V2.88636ZM190.468 11.1534C190.053 11.1534 189.676 11.0753 189.338 10.919C189 10.7599 188.732 10.5312 188.533 10.233C188.334 9.93182 188.235 9.56818 188.235 9.14205C188.235 8.76705 188.309 8.46307 188.456 8.23011C188.604 7.99432 188.801 7.80966 189.049 7.67614C189.296 7.54261 189.569 7.44318 189.867 7.37784C190.168 7.30966 190.471 7.25568 190.775 7.21591C191.172 7.16477 191.495 7.12642 191.742 7.10085C191.992 7.07244 192.174 7.02557 192.287 6.96023C192.404 6.89489 192.462 6.78125 192.462 6.61932V6.58523C192.462 6.16477 192.347 5.83807 192.117 5.60511C191.89 5.37216 191.544 5.25568 191.081 5.25568C190.601 5.25568 190.225 5.3608 189.952 5.57102C189.679 5.78125 189.488 6.00568 189.377 6.24432L188.422 5.90341C188.593 5.50568 188.82 5.19602 189.104 4.97443C189.391 4.75 189.703 4.59375 190.042 4.50568C190.382 4.41477 190.718 4.36932 191.047 4.36932C191.257 4.36932 191.499 4.39489 191.772 4.44602C192.047 4.49432 192.313 4.59517 192.569 4.74858C192.827 4.90199 193.042 5.13352 193.212 5.44318C193.382 5.75284 193.468 6.16761 193.468 6.6875V11H192.462V10.1136H192.411C192.343 10.2557 192.229 10.4077 192.07 10.5696C191.911 10.7315 191.699 10.8693 191.435 10.983C191.171 11.0966 190.848 11.1534 190.468 11.1534ZM190.621 10.25C191.019 10.25 191.354 10.1719 191.627 10.0156C191.902 9.85938 192.11 9.65767 192.249 9.41051C192.391 9.16335 192.462 8.90341 192.462 8.63068V7.71023C192.419 7.76136 192.326 7.80824 192.181 7.85085C192.039 7.89062 191.874 7.92614 191.686 7.95739C191.502 7.9858 191.321 8.01136 191.145 8.03409C190.972 8.05398 190.831 8.07102 190.723 8.08523C190.462 8.11932 190.218 8.17472 189.99 8.25142C189.766 8.32528 189.584 8.4375 189.445 8.58807C189.309 8.7358 189.24 8.9375 189.24 9.19318C189.24 9.54261 189.37 9.80682 189.628 9.9858C189.89 10.1619 190.221 10.25 190.621 10.25ZM199.94 5.92045L199.036 6.17614C198.979 6.02557 198.896 5.87926 198.785 5.73722C198.677 5.59233 198.529 5.47301 198.342 5.37926C198.154 5.28551 197.914 5.23864 197.621 5.23864C197.221 5.23864 196.887 5.33097 196.62 5.51562C196.356 5.69744 196.224 5.92898 196.224 6.21023C196.224 6.46023 196.315 6.65767 196.496 6.80256C196.678 6.94744 196.962 7.06818 197.349 7.16477L198.32 7.40341C198.906 7.54545 199.342 7.76278 199.629 8.0554C199.915 8.34517 200.059 8.71875 200.059 9.17614C200.059 9.55114 199.951 9.88636 199.735 10.1818C199.522 10.4773 199.224 10.7102 198.84 10.8807C198.457 11.0511 198.011 11.1364 197.502 11.1364C196.835 11.1364 196.282 10.9915 195.844 10.7017C195.407 10.4119 195.13 9.98864 195.013 9.43182L195.968 9.19318C196.059 9.54545 196.231 9.80966 196.484 9.9858C196.739 10.1619 197.073 10.25 197.485 10.25C197.954 10.25 198.326 10.1506 198.602 9.9517C198.88 9.75 199.019 9.50852 199.019 9.22727C199.019 9 198.94 8.80966 198.781 8.65625C198.621 8.5 198.377 8.38352 198.048 8.30682L196.957 8.05114C196.357 7.90909 195.917 7.68892 195.636 7.39062C195.357 7.08949 195.218 6.71307 195.218 6.26136C195.218 5.89205 195.322 5.56534 195.529 5.28125C195.739 4.99716 196.025 4.77415 196.386 4.61222C196.749 4.45028 197.161 4.36932 197.621 4.36932C198.269 4.36932 198.778 4.51136 199.147 4.79545C199.519 5.07955 199.783 5.45455 199.94 5.92045ZM202.51 8.61364L202.493 7.36932H202.698L205.561 4.45455H206.806L203.755 7.53977H203.669L202.51 8.61364ZM201.573 11V2.27273H202.578V11H201.573ZM205.732 11L203.175 7.76136L203.891 7.0625L207.01 11H205.732ZM212.737 5.92045L211.833 6.17614C211.776 6.02557 211.692 5.87926 211.582 5.73722C211.474 5.59233 211.326 5.47301 211.138 5.37926C210.951 5.28551 210.711 5.23864 210.418 5.23864C210.018 5.23864 209.684 5.33097 209.417 5.51562C209.153 5.69744 209.021 5.92898 209.021 6.21023C209.021 6.46023 209.112 6.65767 209.293 6.80256C209.475 6.94744 209.759 7.06818 210.146 7.16477L211.117 7.40341C211.702 7.54545 212.138 7.76278 212.425 8.0554C212.712 8.34517 212.856 8.71875 212.856 9.17614C212.856 9.55114 212.748 9.88636 212.532 10.1818C212.319 10.4773 212.021 10.7102 211.637 10.8807C211.254 11.0511 210.808 11.1364 210.299 11.1364C209.631 11.1364 209.079 10.9915 208.641 10.7017C208.204 10.4119 207.927 9.98864 207.81 9.43182L208.765 9.19318C208.856 9.54545 209.028 9.80966 209.281 9.9858C209.536 10.1619 209.87 10.25 210.282 10.25C210.751 10.25 211.123 10.1506 211.398 9.9517C211.677 9.75 211.816 9.50852 211.816 9.22727C211.816 9 211.737 8.80966 211.577 8.65625C211.418 8.5 211.174 8.38352 210.844 8.30682L209.754 8.05114C209.154 7.90909 208.714 7.68892 208.433 7.39062C208.154 7.08949 208.015 6.71307 208.015 6.26136C208.015 5.89205 208.119 5.56534 208.326 5.28125C208.536 4.99716 208.822 4.77415 209.183 4.61222C209.546 4.45028 209.958 4.36932 210.418 4.36932C211.066 4.36932 211.575 4.51136 211.944 4.79545C212.316 5.07955 212.58 5.45455 212.737 5.92045Z" fill="black"/>
<defs>
<clipPath id="clip0_187493_2657">
<rect y="4" width="128" height="8" rx="4" fill="white"/>
</clipPath>
</defs>
</svg>
