<svg width="144" height="27" viewBox="0 0 144 27" fill="none" xmlns="http://www.w3.org/2000/svg">
<rect width="144" height="27" rx="8" fill="#1FD7C1"/>
<path d="M16.7727 8.61364V7.36364L25.5 7.36364V8.61364L21.8409 8.61364L21.8409 19H20.4318L20.4318 8.61364H16.7727ZM29.8864 19.1818C29.0455 19.1818 28.3201 18.9962 27.7102 18.625C27.1042 18.25 26.6364 17.7273 26.3068 17.0568C25.9811 16.3826 25.8182 15.5985 25.8182 14.7045C25.8182 13.8106 25.9811 13.0227 26.3068 12.3409C26.6364 11.6553 27.0947 11.1212 27.6818 10.7386C28.2727 10.3523 28.9621 10.1591 29.75 10.1591C30.2045 10.1591 30.6534 10.2348 31.0966 10.3864C31.5398 10.5379 31.9432 10.7841 32.3068 11.125C32.6705 11.4621 32.9602 11.9091 33.1761 12.4659C33.392 13.0227 33.5 13.7083 33.5 14.5227V15.0909L26.7727 15.0909V13.9318H32.1364C32.1364 13.4394 32.0379 13 31.8409 12.6136C31.6477 12.2273 31.3712 11.9223 31.0114 11.6989C30.6553 11.4754 30.2348 11.3636 29.75 11.3636C29.2159 11.3636 28.7538 11.4962 28.3636 11.7614C27.9773 12.0227 27.6799 12.3636 27.4716 12.7841C27.2633 13.2045 27.1591 13.6553 27.1591 14.1364V14.9091C27.1591 15.5682 27.2727 16.1269 27.5 16.5852C27.7311 17.0398 28.0511 17.3864 28.4602 17.625C28.8693 17.8598 29.3447 17.9773 29.8864 17.9773C30.2386 17.9773 30.5568 17.928 30.8409 17.8295C31.1288 17.7273 31.3769 17.5758 31.5852 17.375C31.7936 17.1705 31.9545 16.9167 32.0682 16.6136L33.3636 16.9773C33.2273 17.4167 32.9981 17.803 32.6761 18.1364C32.3542 18.4659 31.9564 18.7235 31.483 18.9091C31.0095 19.0909 30.4773 19.1818 29.8864 19.1818ZM39.0852 19.1818C38.267 19.1818 37.5625 18.9886 36.9716 18.6023C36.3807 18.2159 35.9261 17.6837 35.608 17.0057C35.2898 16.3277 35.1307 15.553 35.1307 14.6818C35.1307 13.7955 35.2936 13.0133 35.6193 12.3352C35.9489 11.6534 36.4072 11.1212 36.9943 10.7386C37.5852 10.3523 38.2746 10.1591 39.0625 10.1591C39.6761 10.1591 40.2292 10.2727 40.7216 10.5C41.214 10.7273 41.6174 11.0455 41.9318 11.4545C42.2462 11.8636 42.4413 12.3409 42.517 12.8864H41.1761C41.0739 12.4886 40.8466 12.1364 40.4943 11.8295C40.1458 11.5189 39.6761 11.3636 39.0852 11.3636C38.5625 11.3636 38.1042 11.5 37.7102 11.7727C37.3201 12.0417 37.0152 12.4223 36.7955 12.9148C36.5795 13.4034 36.4716 13.9773 36.4716 14.6364C36.4716 15.3106 36.5777 15.8977 36.7898 16.3977C37.0057 16.8977 37.3087 17.286 37.6989 17.5625C38.0928 17.839 38.5549 17.9773 39.0852 17.9773C39.4337 17.9773 39.75 17.9167 40.0341 17.7955C40.3182 17.6742 40.5587 17.5 40.7557 17.2727C40.9527 17.0455 41.0928 16.7727 41.1761 16.4545H42.517C42.4413 16.9697 42.2538 17.4337 41.9545 17.8466C41.6591 18.2557 41.267 18.5814 40.7784 18.8239C40.2936 19.0625 39.7292 19.1818 39.0852 19.1818ZM45.8182 13.75V19H44.4773V7.36364L45.8182 7.36364V11.6364H45.9318C46.1364 11.1856 46.4432 10.8277 46.8523 10.5625C47.2652 10.2936 47.8144 10.1591 48.5 10.1591C49.0947 10.1591 49.6155 10.2784 50.0625 10.517C50.5095 10.7519 50.8561 11.1136 51.1023 11.6023C51.3523 12.0871 51.4773 12.7045 51.4773 13.4545V19H50.1364V13.5455C50.1364 12.8523 49.9564 12.3163 49.5966 11.9375C49.2405 11.5549 48.7462 11.3636 48.1136 11.3636C47.6742 11.3636 47.2803 11.4564 46.9318 11.642C46.5871 11.8277 46.3144 12.0985 46.1136 12.4545C45.9167 12.8106 45.8182 13.2424 45.8182 13.75ZM55.2713 13.75V19H53.9304V10.2727H55.2259V11.6364H55.3395C55.544 11.1932 55.8546 10.8371 56.2713 10.5682C56.688 10.2955 57.2259 10.1591 57.8849 10.1591C58.4759 10.1591 58.9929 10.2803 59.4361 10.5227C59.8793 10.7614 60.224 11.125 60.4702 11.6136C60.7164 12.0985 60.8395 12.7121 60.8395 13.4545V19H59.4986V13.5455C59.4986 12.8598 59.3205 12.3258 58.9645 11.9432C58.6084 11.5568 58.1198 11.3636 57.4986 11.3636C57.0705 11.3636 56.688 11.4564 56.3509 11.642C56.0175 11.8277 55.7543 12.0985 55.5611 12.4545C55.3679 12.8106 55.2713 13.2424 55.2713 13.75ZM63.2898 19V10.2727H64.6307V19H63.2898ZM63.9716 8.81818C63.7102 8.81818 63.4848 8.72917 63.2955 8.55114C63.1098 8.37311 63.017 8.15909 63.017 7.90909C63.017 7.65909 63.1098 7.44508 63.2955 7.26705C63.4848 7.08902 63.7102 7 63.9716 7C64.233 7 64.4564 7.08902 64.642 7.26705C64.8314 7.44508 64.9261 7.65909 64.9261 7.90909C64.9261 8.15909 64.8314 8.37311 64.642 8.55114C64.4564 8.72917 64.233 8.81818 63.9716 8.81818ZM70.6321 19.1818C69.8139 19.1818 69.1094 18.9886 68.5185 18.6023C67.9276 18.2159 67.473 17.6837 67.1548 17.0057C66.8366 16.3277 66.6776 15.553 66.6776 14.6818C66.6776 13.7955 66.8404 13.0133 67.1662 12.3352C67.4957 11.6534 67.9541 11.1212 68.5412 10.7386C69.1321 10.3523 69.8215 10.1591 70.6094 10.1591C71.223 10.1591 71.776 10.2727 72.2685 10.5C72.7609 10.7273 73.1643 11.0455 73.4787 11.4545C73.7931 11.8636 73.9882 12.3409 74.0639 12.8864H72.723C72.6207 12.4886 72.3935 12.1364 72.0412 11.8295C71.6927 11.5189 71.223 11.3636 70.6321 11.3636C70.1094 11.3636 69.651 11.5 69.2571 11.7727C68.867 12.0417 68.562 12.4223 68.3423 12.9148C68.1264 13.4034 68.0185 13.9773 68.0185 14.6364C68.0185 15.3106 68.1245 15.8977 68.3366 16.3977C68.5526 16.8977 68.8556 17.286 69.2457 17.5625C69.6397 17.839 70.1018 17.9773 70.6321 17.9773C70.9806 17.9773 71.2969 17.9167 71.581 17.7955C71.8651 17.6742 72.1056 17.5 72.3026 17.2727C72.4995 17.0455 72.6397 16.7727 72.723 16.4545H74.0639C73.9882 16.9697 73.8007 17.4337 73.5014 17.8466C73.206 18.2557 72.8139 18.5814 72.3253 18.8239C71.8404 19.0625 71.276 19.1818 70.6321 19.1818ZM78.5923 19.2045C78.0393 19.2045 77.5374 19.1004 77.0866 18.892C76.6359 18.6799 76.2779 18.375 76.0128 17.9773C75.7476 17.5758 75.6151 17.0909 75.6151 16.5227C75.6151 16.0227 75.7135 15.6174 75.9105 15.3068C76.1075 14.9924 76.3707 14.7462 76.7003 14.5682C77.0298 14.3902 77.3935 14.2576 77.7912 14.1705C78.1927 14.0795 78.5961 14.0076 79.0014 13.9545C79.5317 13.8864 79.9616 13.8352 80.2912 13.8011C80.6245 13.7633 80.867 13.7008 81.0185 13.6136C81.1738 13.5265 81.2514 13.375 81.2514 13.1591V13.1136C81.2514 12.553 81.098 12.1174 80.7912 11.8068C80.4882 11.4962 80.0279 11.3409 79.4105 11.3409C78.7704 11.3409 78.2685 11.4811 77.9048 11.7614C77.5412 12.0417 77.2855 12.3409 77.1378 12.6591L75.8651 12.2045C76.0923 11.6742 76.3954 11.2614 76.7741 10.9659C77.1567 10.6667 77.5734 10.4583 78.0241 10.3409C78.4787 10.2197 78.9257 10.1591 79.3651 10.1591C79.6454 10.1591 79.9673 10.1932 80.331 10.2614C80.6984 10.3258 81.0526 10.4602 81.3935 10.6648C81.7382 10.8693 82.0241 11.178 82.2514 11.5909C82.4787 12.0038 82.5923 12.5568 82.5923 13.25V19H81.2514V17.8182H81.1832C81.0923 18.0076 80.9408 18.2102 80.7287 18.4261C80.5166 18.642 80.2344 18.8258 79.8821 18.9773C79.5298 19.1288 79.0999 19.2045 78.5923 19.2045ZM78.7969 18C79.3272 18 79.7741 17.8958 80.1378 17.6875C80.5052 17.4792 80.7817 17.2102 80.9673 16.8807C81.1567 16.5511 81.2514 16.2045 81.2514 15.8409V14.6136C81.1946 14.6818 81.0696 14.7443 80.8764 14.8011C80.687 14.8542 80.4673 14.9015 80.2173 14.9432C79.9711 14.9811 79.7306 15.0152 79.4957 15.0455C79.2647 15.072 79.0772 15.0947 78.9332 15.1136C78.5848 15.1591 78.259 15.233 77.956 15.3352C77.6567 15.4337 77.4143 15.5833 77.2287 15.7841C77.0469 15.9811 76.956 16.25 76.956 16.5909C76.956 17.0568 77.1283 17.4091 77.473 17.6477C77.8215 17.8826 78.2628 18 78.7969 18ZM86.3807 7.36364V19H85.0398V7.36364H86.3807ZM92.8821 8.61364V7.36364L101.609 7.36364V8.61364H97.9503V19H96.5412V8.61364L92.8821 8.61364ZM104.983 19.2045C104.43 19.2045 103.928 19.1004 103.477 18.892C103.027 18.6799 102.669 18.375 102.403 17.9773C102.138 17.5758 102.006 17.0909 102.006 16.5227C102.006 16.0227 102.104 15.6174 102.301 15.3068C102.498 14.9924 102.761 14.7462 103.091 14.5682C103.42 14.3902 103.784 14.2576 104.182 14.1705C104.583 14.0795 104.987 14.0076 105.392 13.9545C105.922 13.8864 106.352 13.8352 106.682 13.8011C107.015 13.7633 107.258 13.7008 107.409 13.6136C107.564 13.5265 107.642 13.375 107.642 13.1591V13.1136C107.642 12.553 107.489 12.1174 107.182 11.8068C106.879 11.4962 106.419 11.3409 105.801 11.3409C105.161 11.3409 104.659 11.4811 104.295 11.7614C103.932 12.0417 103.676 12.3409 103.528 12.6591L102.256 12.2045C102.483 11.6742 102.786 11.2614 103.165 10.9659C103.547 10.6667 103.964 10.4583 104.415 10.3409C104.869 10.2197 105.316 10.1591 105.756 10.1591C106.036 10.1591 106.358 10.1932 106.722 10.2614C107.089 10.3258 107.443 10.4602 107.784 10.6648C108.129 10.8693 108.415 11.178 108.642 11.5909C108.869 12.0038 108.983 12.5568 108.983 13.25V19H107.642V17.8182H107.574C107.483 18.0076 107.331 18.2102 107.119 18.4261C106.907 18.642 106.625 18.8258 106.273 18.9773C105.92 19.1288 105.491 19.2045 104.983 19.2045ZM105.188 18C105.718 18 106.165 17.8958 106.528 17.6875C106.896 17.4792 107.172 17.2102 107.358 16.8807C107.547 16.5511 107.642 16.2045 107.642 15.8409V14.6136C107.585 14.6818 107.46 14.7443 107.267 14.8011C107.078 14.8542 106.858 14.9015 106.608 14.9432C106.362 14.9811 106.121 15.0152 105.886 15.0455C105.655 15.072 105.468 15.0947 105.324 15.1136C104.975 15.1591 104.65 15.233 104.347 15.3352C104.047 15.4337 103.805 15.5833 103.619 15.7841C103.438 15.9811 103.347 16.25 103.347 16.5909C103.347 17.0568 103.519 17.4091 103.864 17.6477C104.212 17.8826 104.653 18 105.188 18ZM117.612 12.2273L116.408 12.5682C116.332 12.3674 116.22 12.1723 116.072 11.983C115.929 11.7898 115.732 11.6307 115.482 11.5057C115.232 11.3807 114.911 11.3182 114.521 11.3182C113.987 11.3182 113.542 11.4413 113.186 11.6875C112.834 11.9299 112.658 12.2386 112.658 12.6136C112.658 12.947 112.779 13.2102 113.021 13.4034C113.264 13.5966 113.643 13.7576 114.158 13.8864L115.453 14.2045C116.233 14.3939 116.815 14.6837 117.197 15.0739C117.58 15.4602 117.771 15.9583 117.771 16.5682C117.771 17.0682 117.627 17.5152 117.339 17.9091C117.055 18.303 116.658 18.6136 116.146 18.8409C115.635 19.0682 115.04 19.1818 114.362 19.1818C113.472 19.1818 112.735 18.9886 112.152 18.6023C111.569 18.2159 111.199 17.6515 111.044 16.9091L112.317 16.5909C112.438 17.0606 112.667 17.4129 113.004 17.6477C113.345 17.8826 113.79 18 114.339 18C114.964 18 115.461 17.8674 115.828 17.6023C116.199 17.3333 116.385 17.0114 116.385 16.6364C116.385 16.3333 116.279 16.0795 116.067 15.875C115.855 15.6667 115.529 15.5114 115.089 15.4091L113.635 15.0682C112.836 14.8788 112.249 14.5852 111.874 14.1875C111.502 13.786 111.317 13.2841 111.317 12.6818C111.317 12.1894 111.455 11.7538 111.732 11.375C112.012 10.9962 112.393 10.6989 112.874 10.483C113.358 10.267 113.908 10.1591 114.521 10.1591C115.385 10.1591 116.063 10.3485 116.555 10.7273C117.052 11.1061 117.404 11.6061 117.612 12.2273ZM121.04 15.8182L121.017 14.1591H121.29L125.108 10.2727H126.767L122.699 14.3864H122.585L121.04 15.8182ZM119.79 19V7.36364H121.131V19L119.79 19ZM125.335 19L121.926 14.6818L122.881 13.75L127.04 19H125.335Z" fill="white"/>
</svg>
