<svg width="33" height="32" viewBox="0 0 33 32" fill="none" xmlns="http://www.w3.org/2000/svg">
<mask id="mask0_44131_5128" style="mask-type:alpha" maskUnits="userSpaceOnUse" x="0" y="0" width="33" height="32">
<rect x="0.0341797" width="32" height="32" fill="#D9D9D9"/>
</mask>
<g mask="url(#mask0_44131_5128)">
<path d="M15.9842 22C16.3342 22 16.63 21.8792 16.8717 21.6375C17.1133 21.3958 17.2342 21.1 17.2342 20.75C17.2342 20.4 17.1133 20.1042 16.8717 19.8625C16.63 19.6208 16.3342 19.5 15.9842 19.5C15.6342 19.5 15.3383 19.6208 15.0967 19.8625C14.855 20.1042 14.7342 20.4 14.7342 20.75C14.7342 21.1 14.855 21.3958 15.0967 21.6375C15.3383 21.8792 15.6342 22 15.9842 22ZM16.0342 26C14.6508 26 13.3508 25.7375 12.1342 25.2125C10.9175 24.6875 9.85918 23.975 8.95918 23.075C8.05918 22.175 7.34668 21.1167 6.82168 19.9C6.29668 18.6833 6.03418 17.3833 6.03418 16C6.03418 14.6167 6.29668 13.3167 6.82168 12.1C7.34668 10.8833 8.05918 9.825 8.95918 8.925C9.85918 8.025 10.9175 7.3125 12.1342 6.7875C13.3508 6.2625 14.6508 6 16.0342 6C17.4175 6 18.7175 6.2625 19.9342 6.7875C21.1508 7.3125 22.2092 8.025 23.1092 8.925C24.0092 9.825 24.7217 10.8833 25.2467 12.1C25.7717 13.3167 26.0342 14.6167 26.0342 16C26.0342 17.3833 25.7717 18.6833 25.2467 19.9C24.7217 21.1167 24.0092 22.175 23.1092 23.075C22.2092 23.975 21.1508 24.6875 19.9342 25.2125C18.7175 25.7375 17.4175 26 16.0342 26ZM16.0342 24C18.2675 24 20.1592 23.225 21.7092 21.675C23.2592 20.125 24.0342 18.2333 24.0342 16C24.0342 13.7667 23.2592 11.875 21.7092 10.325C20.1592 8.775 18.2675 8 16.0342 8C13.8008 8 11.9092 8.775 10.3592 10.325C8.80918 11.875 8.03418 13.7667 8.03418 16C8.03418 18.2333 8.80918 20.125 10.3592 21.675C11.9092 23.225 13.8008 24 16.0342 24ZM16.1342 11.7C16.5508 11.7 16.9133 11.8333 17.2217 12.1C17.53 12.3667 17.6842 12.7 17.6842 13.1C17.6842 13.4667 17.5717 13.7917 17.3467 14.075C17.1217 14.3583 16.8675 14.625 16.5842 14.875C16.2008 15.2083 15.8633 15.575 15.5717 15.975C15.28 16.375 15.1342 16.825 15.1342 17.325C15.1342 17.5583 15.2217 17.7542 15.3967 17.9125C15.5717 18.0708 15.7758 18.15 16.0092 18.15C16.2592 18.15 16.4717 18.0667 16.6467 17.9C16.8217 17.7333 16.9342 17.525 16.9842 17.275C17.0508 16.925 17.2008 16.6125 17.4342 16.3375C17.6675 16.0625 17.9175 15.8 18.1842 15.55C18.5675 15.1833 18.8967 14.7833 19.1717 14.35C19.4467 13.9167 19.5842 13.4333 19.5842 12.9C19.5842 12.05 19.2383 11.3542 18.5467 10.8125C17.855 10.2708 17.0508 10 16.1342 10C15.5008 10 14.8967 10.1333 14.3217 10.4C13.7467 10.6667 13.3092 11.075 13.0092 11.625C12.8925 11.825 12.855 12.0375 12.8967 12.2625C12.9383 12.4875 13.0508 12.6583 13.2342 12.775C13.4675 12.9083 13.7092 12.95 13.9592 12.9C14.2092 12.85 14.4175 12.7083 14.5842 12.475C14.7675 12.225 14.9967 12.0333 15.2717 11.9C15.5467 11.7667 15.8342 11.7 16.1342 11.7Z" fill="#A8A8A8"/>
</g>
</svg>
