<svg width="274" height="335" viewBox="0 0 274 335" fill="none" xmlns="http://www.w3.org/2000/svg">
<path d="M196.314 0H135.623V69.8251H196.314V0Z" fill="#2A3647"/>
<path d="M135.623 126.614H196.315V225.091C196.592 248.787 189.848 272.031 176.94 291.868C164.195 311.141 139.591 334.072 94.0723 334.072C44.4917 334.072 15.5931 310.626 0 297.777L38.2825 250.554C53.5021 262.981 68.1615 273.204 94.3057 273.204C114.101 273.204 121.99 265.138 126.612 258.104C132.896 248.334 136.146 236.908 135.95 225.279L135.623 126.614Z" fill="#2A3647"/>
<path d="M104.67 82.5332H43.9781V143.495H104.67V82.5332Z" fill="#29ABE2"/>
<path d="M228.108 305.467C228.108 318.456 221.525 325.444 212.328 325.444C203.131 325.444 197.108 317.143 197.108 306.123C197.108 295.103 203.318 286.381 212.842 286.381C222.366 286.381 228.108 294.962 228.108 305.467ZM204.158 305.983C204.158 313.814 207.286 319.582 212.655 319.582C218.024 319.582 221.058 313.486 221.058 305.514C221.058 298.526 218.257 291.961 212.655 291.961C207.053 291.961 204.158 298.292 204.158 305.983Z" fill="#2A3647"/>
<path d="M240.153 286.944V324.834H233.43V286.944H240.153Z" fill="#2A3647"/>
<path d="M247.436 324.834V286.944H254.905L262.935 302.56C265.002 306.643 266.842 310.838 268.444 315.127C268.024 310.438 267.837 305.045 267.837 299.042V286.944H274V324.834H267.044L258.92 308.89C256.77 304.702 254.853 300.397 253.178 295.994C253.178 300.684 253.505 305.983 253.505 312.501V324.787L247.436 324.834Z" fill="#2A3647"/>
</svg>
