<svg width="62" height="24" viewBox="0 0 62 24" fill="none" xmlns="http://www.w3.org/2000/svg">
<mask id="mask0_187493_4281" style="mask-type:alpha" maskUnits="userSpaceOnUse" x="0" y="0" width="24" height="24">
<rect width="24" height="24" fill="#D9D9D9"/>
</mask>
<g mask="url(#mask0_187493_4281)">
<path d="M5 19H6.4L15.025 10.375L13.625 8.975L5 17.6V19ZM19.3 8.925L15.05 4.725L16.45 3.325C16.8333 2.94167 17.3042 2.75 17.8625 2.75C18.4208 2.75 18.8917 2.94167 19.275 3.325L20.675 4.725C21.0583 5.10833 21.2583 5.57083 21.275 6.1125C21.2917 6.65417 21.1083 7.11667 20.725 7.5L19.3 8.925ZM17.85 10.4L7.25 21H3V16.75L13.6 6.15L17.85 10.4Z" fill="#2A3647"/>
</g>
<path d="M33.4091 17.5V5.86364H40.4318V7.11364H34.8182V11.0455H40.0682V12.2955H34.8182V16.25H40.5227V17.5H33.4091ZM46.0852 17.6818C45.358 17.6818 44.7159 17.4981 44.1591 17.1307C43.6023 16.7595 43.1667 16.2367 42.8523 15.5625C42.5379 14.8845 42.3807 14.0833 42.3807 13.1591C42.3807 12.2424 42.5379 11.447 42.8523 10.7727C43.1667 10.0985 43.6042 9.57765 44.1648 9.21023C44.7254 8.8428 45.3731 8.65909 46.108 8.65909C46.6761 8.65909 47.125 8.75379 47.4545 8.94318C47.7879 9.12879 48.0417 9.34091 48.2159 9.57955C48.3939 9.81439 48.5322 10.0076 48.6307 10.1591H48.7443V5.86364H50.0852V17.5H48.7898V16.1591H48.6307C48.5322 16.3182 48.392 16.5189 48.2102 16.7614C48.0284 17 47.7689 17.214 47.4318 17.4034C47.0947 17.589 46.6458 17.6818 46.0852 17.6818ZM46.267 16.4773C46.8049 16.4773 47.2595 16.3371 47.6307 16.0568C48.0019 15.7727 48.2841 15.3807 48.4773 14.8807C48.6705 14.3769 48.767 13.7955 48.767 13.1364C48.767 12.4848 48.6723 11.9148 48.483 11.4261C48.2936 10.9337 48.0133 10.5511 47.642 10.2784C47.2708 10.0019 46.8125 9.86364 46.267 9.86364C45.6989 9.86364 45.2254 10.0095 44.8466 10.3011C44.4716 10.589 44.1894 10.9811 44 11.4773C43.8144 11.9697 43.7216 12.5227 43.7216 13.1364C43.7216 13.7576 43.8163 14.322 44.0057 14.8295C44.1989 15.3333 44.483 15.7348 44.858 16.0341C45.2367 16.3295 45.7064 16.4773 46.267 16.4773ZM52.7273 17.5V8.77273H54.0682V17.5H52.7273ZM53.4091 7.31818C53.1477 7.31818 52.9223 7.22917 52.733 7.05114C52.5473 6.87311 52.4545 6.65909 52.4545 6.40909C52.4545 6.15909 52.5473 5.94508 52.733 5.76705C52.9223 5.58902 53.1477 5.5 53.4091 5.5C53.6705 5.5 53.8939 5.58902 54.0795 5.76705C54.2689 5.94508 54.3636 6.15909 54.3636 6.40909C54.3636 6.65909 54.2689 6.87311 54.0795 7.05114C53.8939 7.22917 53.6705 7.31818 53.4091 7.31818ZM60.3196 8.77273V9.90909H55.7969V8.77273H60.3196ZM57.1151 6.68182H58.456V15C58.456 15.3788 58.5109 15.6629 58.6207 15.8523C58.7344 16.0379 58.8783 16.1629 59.0526 16.2273C59.2306 16.2879 59.4181 16.3182 59.6151 16.3182C59.7628 16.3182 59.884 16.3106 59.9787 16.2955C60.0734 16.2765 60.1491 16.2614 60.206 16.25L60.4787 17.4545C60.3878 17.4886 60.2609 17.5227 60.098 17.5568C59.9351 17.5947 59.7287 17.6136 59.4787 17.6136C59.0999 17.6136 58.7287 17.5322 58.3651 17.3693C58.0052 17.2064 57.706 16.9583 57.4673 16.625C57.2325 16.2917 57.1151 15.8712 57.1151 15.3636V6.68182Z" fill="#2A3647"/>
</svg>
