<svg width="18" height="12" viewBox="0 0 18 12" fill="none" xmlns="http://www.w3.org/2000/svg">
<path d="M9.00026 4.75476C9.19969 4.75443 9.39397 4.81633 9.55451 4.93137L17.123 10.3653C17.2215 10.4361 17.3046 10.525 17.3678 10.627C17.4309 10.7291 17.4727 10.8422 17.4909 10.9599C17.5276 11.1977 17.4656 11.4399 17.3186 11.6333C17.1716 11.8266 16.9516 11.9553 16.7071 11.9909C16.4625 12.0266 16.2134 11.9664 16.0145 11.8234L9.00026 6.7925L1.98602 11.8234C1.88754 11.8942 1.7757 11.9454 1.65687 11.9742C1.53803 12.0029 1.41455 12.0086 1.29345 11.9909C1.17235 11.9733 1.05602 11.9326 0.951088 11.8712C0.846159 11.8099 0.754691 11.729 0.681906 11.6333C0.609122 11.5375 0.556445 11.4288 0.526885 11.3132C0.497325 11.1977 0.491459 11.0776 0.509623 10.9599C0.527789 10.8422 0.569626 10.7291 0.632752 10.627C0.695876 10.525 0.779049 10.4361 0.877524 10.3653L8.44602 4.93137C8.60656 4.81633 8.80083 4.75443 9.00026 4.75476Z" fill="#FF3D00"/>
<path d="M9.00002 -0.000121266C9.19945 -0.000455511 9.39372 0.0614475 9.55427 0.176482L17.1228 5.61045C17.3216 5.75336 17.454 5.96724 17.4907 6.20502C17.5273 6.4428 17.4654 6.68501 17.3184 6.87837C17.1714 7.07173 16.9514 7.20039 16.7068 7.23606C16.4623 7.27173 16.2131 7.21147 16.0143 7.06856L9.00002 2.03761L1.98577 7.06856C1.78689 7.21147 1.53777 7.27173 1.2932 7.23606C1.04863 7.20039 0.828657 7.07173 0.681662 6.87837C0.534667 6.68501 0.472695 6.4428 0.509379 6.20502C0.546065 5.96723 0.678402 5.75336 0.87728 5.61044L8.44577 0.176482C8.60631 0.0614474 8.80059 -0.000455546 9.00002 -0.000121266Z" fill="#FF3D00"/>
</svg>
