<svg width="20" height="15" viewBox="0 0 20 15" fill="none" xmlns="http://www.w3.org/2000/svg">
<g clip-path="url(#clip0_44131_5787)">
<path d="M18.9041 14.7547C18.6695 14.7551 18.441 14.6803 18.2521 14.5412L10 8.458L1.74797 14.5412C1.63212 14.6267 1.50054 14.6887 1.36073 14.7234C1.22093 14.7582 1.07565 14.7651 0.933183 14.7437C0.790715 14.7223 0.653851 14.6732 0.530406 14.599C0.406961 14.5247 0.299352 14.427 0.213723 14.3112C0.128094 14.1954 0.0661217 14.0639 0.031345 13.9243C-0.00343163 13.7846 -0.0103318 13.6394 0.0110384 13.497C0.0541974 13.2095 0.209888 12.9509 0.44386 12.7781L9.34797 6.20761C9.53667 6.06802 9.76524 5.99268 10 5.99268C10.2348 5.99268 10.4634 6.06802 10.6521 6.20761L19.5562 12.7781C19.7421 12.915 19.88 13.1071 19.9501 13.327C20.0203 13.5469 20.0191 13.7833 19.9468 14.0025C19.8745 14.2216 19.7348 14.4124 19.5475 14.5475C19.3603 14.6826 19.1351 14.7551 18.9041 14.7547Z" fill="#FF3D00"/>
<path d="M18.9041 9.00568C18.6695 9.00609 18.441 8.93124 18.2521 8.79214L10 2.70898L1.74797 8.79214C1.514 8.96495 1.22091 9.0378 0.933188 8.99468C0.645461 8.95155 0.386663 8.79597 0.213727 8.56218C0.0407916 8.32838 -0.0321162 8.03551 0.0110429 7.74799C0.0542019 7.46048 0.209892 7.20187 0.443864 7.02906L9.34797 0.458588C9.53667 0.318997 9.76525 0.243652 10 0.243652C10.2348 0.243652 10.4634 0.318997 10.6521 0.458588L19.5562 7.02906C19.7421 7.16598 19.88 7.35809 19.9501 7.57797C20.0203 7.79785 20.0191 8.03426 19.9468 8.25344C19.8745 8.47262 19.7348 8.66338 19.5475 8.79847C19.3603 8.93356 19.1351 9.00608 18.9041 9.00568Z" fill="#FF3D00"/>
</g>
<defs>
<clipPath id="clip0_44131_5787">
<rect width="20" height="14.5098" fill="white" transform="translate(0 0.245117)"/>
</clipPath>
</defs>
</svg>
