<svg width="21" height="15" viewBox="0 0 21 15" fill="none" xmlns="http://www.w3.org/2000/svg">
<path d="M10.5 9.00589C10.2654 9.0063 10.0369 8.93145 9.84802 8.79238L0.944913 2.22264C0.829075 2.13708 0.731235 2.02957 0.65698 1.90623C0.582724 1.78289 0.533508 1.64614 0.51214 1.50379C0.468986 1.21631 0.541885 0.923473 0.714802 0.689701C0.887718 0.455928 1.14649 0.300371 1.43418 0.257248C1.72188 0.214126 2.01493 0.286972 2.24888 0.45976L10.5 6.54224L18.7511 0.45976C18.867 0.374204 18.9985 0.312285 19.1383 0.277538C19.2781 0.242791 19.4234 0.235896 19.5658 0.257248C19.7083 0.2786 19.8451 0.32778 19.9685 0.401981C20.092 0.476181 20.1996 0.573948 20.2852 0.689701C20.3708 0.805453 20.4328 0.936923 20.4676 1.07661C20.5023 1.21629 20.5092 1.36145 20.4879 1.50379C20.4665 1.64614 20.4173 1.78289 20.343 1.90623C20.2688 2.02957 20.1709 2.13708 20.0551 2.22264L11.152 8.79238C10.9631 8.93145 10.7346 9.0063 10.5 9.00589Z" fill="#7AE229"/>
<path d="M10.5 14.7544C10.2654 14.7548 10.0369 14.68 9.84802 14.5409L0.944913 7.97117C0.710967 7.79839 0.555294 7.53981 0.51214 7.25233C0.468986 6.96485 0.541886 6.67201 0.714802 6.43824C0.887718 6.20446 1.14649 6.04891 1.43418 6.00578C1.72188 5.96266 2.01493 6.03551 2.24888 6.2083L10.5 12.2908L18.7511 6.2083C18.9851 6.03551 19.2781 5.96266 19.5658 6.00578C19.8535 6.04891 20.1123 6.20446 20.2852 6.43824C20.4581 6.67201 20.531 6.96485 20.4879 7.25233C20.4447 7.53981 20.289 7.79839 20.0551 7.97117L11.152 14.5409C10.9631 14.68 10.7346 14.7548 10.5 14.7544Z" fill="#7AE229"/>
</svg>
