<svg width="220" height="16" viewBox="0 0 220 16" fill="none" xmlns="http://www.w3.org/2000/svg">
<rect y="4" width="128" height="8" rx="4" fill="#F4F4F4"/>
<rect y="4" width="64" height="8" rx="4" fill="#4589FF"/>
<path d="M142.972 2.27273V11H141.915V3.38068H141.864L139.733 4.79545V3.72159L141.915 2.27273H142.972ZM148.584 1.86364L145.771 12.3125H144.851L147.663 1.86364H148.584ZM149.759 11V10.233L152.64 7.07955C152.978 6.71023 153.256 6.3892 153.475 6.11648C153.694 5.84091 153.855 5.58239 153.961 5.34091C154.069 5.09659 154.123 4.84091 154.123 4.57386C154.123 4.26705 154.049 4.00142 153.901 3.77699C153.756 3.55256 153.557 3.37926 153.304 3.2571C153.051 3.13494 152.767 3.07386 152.452 3.07386C152.117 3.07386 151.824 3.14347 151.574 3.28267C151.327 3.41903 151.135 3.6108 150.999 3.85795C150.865 4.10511 150.799 4.39489 150.799 4.72727H149.793C149.793 4.21591 149.911 3.76705 150.147 3.38068C150.382 2.99432 150.703 2.69318 151.11 2.47727C151.519 2.26136 151.978 2.15341 152.486 2.15341C152.998 2.15341 153.451 2.26136 153.846 2.47727C154.24 2.69318 154.55 2.98437 154.775 3.35085C154.999 3.71733 155.111 4.125 155.111 4.57386C155.111 4.89489 155.053 5.20881 154.936 5.51562C154.823 5.8196 154.624 6.15909 154.34 6.53409C154.059 6.90625 153.668 7.3608 153.168 7.89773L151.208 9.99432V10.0625H155.265V11H149.759ZM165.326 4.45455C165.275 4.02273 165.067 3.6875 164.703 3.44886C164.34 3.21023 163.894 3.09091 163.365 3.09091C162.979 3.09091 162.641 3.15341 162.351 3.27841C162.064 3.40341 161.84 3.57528 161.678 3.79403C161.519 4.01278 161.439 4.26136 161.439 4.53977C161.439 4.77273 161.495 4.97301 161.605 5.14062C161.719 5.3054 161.864 5.44318 162.04 5.55398C162.216 5.66193 162.401 5.75142 162.594 5.82244C162.787 5.89062 162.965 5.94602 163.127 5.98864L164.013 6.22727C164.24 6.28693 164.493 6.36932 164.772 6.47443C165.053 6.57955 165.321 6.72301 165.577 6.90483C165.836 7.08381 166.049 7.31392 166.216 7.59517C166.384 7.87642 166.468 8.22159 166.468 8.63068C166.468 9.10227 166.344 9.52841 166.097 9.90909C165.853 10.2898 165.495 10.5923 165.023 10.8168C164.554 11.0412 163.985 11.1534 163.314 11.1534C162.689 11.1534 162.148 11.0526 161.691 10.8509C161.236 10.6491 160.878 10.3679 160.617 10.0071C160.358 9.64631 160.212 9.22727 160.178 8.75H161.269C161.297 9.07955 161.408 9.35227 161.601 9.56818C161.797 9.78125 162.044 9.94034 162.343 10.0455C162.644 10.1477 162.968 10.1989 163.314 10.1989C163.718 10.1989 164.08 10.1335 164.401 10.0028C164.722 9.86932 164.976 9.68466 165.164 9.44886C165.351 9.21023 165.445 8.93182 165.445 8.61364C165.445 8.32386 165.364 8.08807 165.202 7.90625C165.04 7.72443 164.827 7.5767 164.563 7.46307C164.299 7.34943 164.013 7.25 163.706 7.16477L162.632 6.85795C161.951 6.66193 161.411 6.3821 161.013 6.01847C160.615 5.65483 160.417 5.17898 160.417 4.59091C160.417 4.10227 160.549 3.67614 160.813 3.3125C161.08 2.94602 161.438 2.66193 161.887 2.46023C162.338 2.25568 162.843 2.15341 163.4 2.15341C163.962 2.15341 164.462 2.25426 164.9 2.45597C165.337 2.65483 165.684 2.92756 165.939 3.27415C166.198 3.62074 166.334 4.0142 166.348 4.45455H165.326ZM172.194 8.32386V4.45455H173.2V11H172.194V9.89205H172.126C171.972 10.2244 171.734 10.5071 171.41 10.7401C171.086 10.9702 170.677 11.0852 170.183 11.0852C169.773 11.0852 169.41 10.9957 169.092 10.8168C168.773 10.6349 168.523 10.3622 168.342 9.99858C168.16 9.6321 168.069 9.17045 168.069 8.61364V4.45455H169.075V8.54545C169.075 9.02273 169.208 9.40341 169.475 9.6875C169.745 9.97159 170.089 10.1136 170.506 10.1136C170.756 10.1136 171.011 10.0497 171.269 9.92188C171.531 9.79403 171.749 9.59801 171.925 9.33381C172.104 9.0696 172.194 8.73295 172.194 8.32386ZM175.178 11V2.27273H176.184V5.49432H176.269C176.343 5.38068 176.445 5.2358 176.576 5.05966C176.709 4.88068 176.9 4.72159 177.147 4.58239C177.397 4.44034 177.735 4.36932 178.161 4.36932C178.712 4.36932 179.198 4.5071 179.618 4.78267C180.039 5.05824 180.367 5.44886 180.603 5.95455C180.838 6.46023 180.956 7.05682 180.956 7.74432C180.956 8.4375 180.838 9.03835 180.603 9.54688C180.367 10.0526 180.04 10.4446 179.623 10.723C179.205 10.9986 178.723 11.1364 178.178 11.1364C177.757 11.1364 177.421 11.0668 177.168 10.9276C176.915 10.7855 176.721 10.625 176.584 10.446C176.448 10.2642 176.343 10.1136 176.269 9.99432H176.15V11H175.178ZM176.167 7.72727C176.167 8.22159 176.239 8.65767 176.384 9.03551C176.529 9.41051 176.74 9.70455 177.019 9.91761C177.297 10.1278 177.638 10.233 178.042 10.233C178.462 10.233 178.813 10.1222 179.094 9.90057C179.378 9.67614 179.591 9.375 179.733 8.99716C179.878 8.61648 179.951 8.19318 179.951 7.72727C179.951 7.26705 179.88 6.85227 179.738 6.48295C179.598 6.1108 179.387 5.81676 179.103 5.60085C178.821 5.3821 178.468 5.27273 178.042 5.27273C177.632 5.27273 177.289 5.37642 177.01 5.58381C176.732 5.78835 176.522 6.07528 176.38 6.4446C176.238 6.81108 176.167 7.23864 176.167 7.72727ZM185.341 4.45455V5.30682H181.949V4.45455H185.341ZM182.938 2.88636H183.944V9.125C183.944 9.40909 183.985 9.62216 184.067 9.7642C184.152 9.90341 184.26 9.99716 184.391 10.0455C184.525 10.0909 184.665 10.1136 184.813 10.1136C184.924 10.1136 185.015 10.108 185.086 10.0966C185.157 10.0824 185.213 10.071 185.256 10.0625L185.461 10.9659C185.392 10.9915 185.297 11.017 185.175 11.0426C185.053 11.071 184.898 11.0852 184.711 11.0852C184.426 11.0852 184.148 11.0241 183.875 10.902C183.605 10.7798 183.381 10.5938 183.202 10.3438C183.026 10.0938 182.938 9.77841 182.938 9.39773V2.88636ZM188.78 11.1534C188.365 11.1534 187.989 11.0753 187.651 10.919C187.313 10.7599 187.044 10.5312 186.846 10.233C186.647 9.93182 186.547 9.56818 186.547 9.14205C186.547 8.76705 186.621 8.46307 186.769 8.23011C186.917 7.99432 187.114 7.80966 187.361 7.67614C187.608 7.54261 187.881 7.44318 188.179 7.37784C188.48 7.30966 188.783 7.25568 189.087 7.21591C189.485 7.16477 189.807 7.12642 190.054 7.10085C190.304 7.07244 190.486 7.02557 190.6 6.96023C190.716 6.89489 190.775 6.78125 190.775 6.61932V6.58523C190.775 6.16477 190.659 5.83807 190.429 5.60511C190.202 5.37216 189.857 5.25568 189.394 5.25568C188.914 5.25568 188.537 5.3608 188.265 5.57102C187.992 5.78125 187.8 6.00568 187.689 6.24432L186.735 5.90341C186.905 5.50568 187.132 5.19602 187.417 4.97443C187.703 4.75 188.016 4.59375 188.354 4.50568C188.695 4.41477 189.03 4.36932 189.36 4.36932C189.57 4.36932 189.811 4.39489 190.084 4.44602C190.36 4.49432 190.625 4.59517 190.881 4.74858C191.14 4.90199 191.354 5.13352 191.525 5.44318C191.695 5.75284 191.78 6.16761 191.78 6.6875V11H190.775V10.1136H190.723C190.655 10.2557 190.542 10.4077 190.382 10.5696C190.223 10.7315 190.012 10.8693 189.748 10.983C189.483 11.0966 189.161 11.1534 188.78 11.1534ZM188.934 10.25C189.331 10.25 189.667 10.1719 189.939 10.0156C190.215 9.85938 190.422 9.65767 190.561 9.41051C190.703 9.16335 190.775 8.90341 190.775 8.63068V7.71023C190.732 7.76136 190.638 7.80824 190.493 7.85085C190.351 7.89062 190.186 7.92614 189.999 7.95739C189.814 7.9858 189.634 8.01136 189.458 8.03409C189.284 8.05398 189.144 8.07102 189.036 8.08523C188.775 8.11932 188.53 8.17472 188.303 8.25142C188.078 8.32528 187.897 8.4375 187.757 8.58807C187.621 8.7358 187.553 8.9375 187.553 9.19318C187.553 9.54261 187.682 9.80682 187.941 9.9858C188.202 10.1619 188.533 10.25 188.934 10.25ZM198.252 5.92045L197.349 6.17614C197.292 6.02557 197.208 5.87926 197.097 5.73722C196.989 5.59233 196.842 5.47301 196.654 5.37926C196.467 5.28551 196.227 5.23864 195.934 5.23864C195.533 5.23864 195.2 5.33097 194.933 5.51562C194.668 5.69744 194.536 5.92898 194.536 6.21023C194.536 6.46023 194.627 6.65767 194.809 6.80256C194.991 6.94744 195.275 7.06818 195.661 7.16477L196.633 7.40341C197.218 7.54545 197.654 7.76278 197.941 8.0554C198.228 8.34517 198.371 8.71875 198.371 9.17614C198.371 9.55114 198.263 9.88636 198.048 10.1818C197.835 10.4773 197.536 10.7102 197.153 10.8807C196.769 11.0511 196.323 11.1364 195.815 11.1364C195.147 11.1364 194.594 10.9915 194.157 10.7017C193.719 10.4119 193.442 9.98864 193.326 9.43182L194.281 9.19318C194.371 9.54545 194.543 9.80966 194.796 9.9858C195.052 10.1619 195.386 10.25 195.798 10.25C196.266 10.25 196.638 10.1506 196.914 9.9517C197.192 9.75 197.332 9.50852 197.332 9.22727C197.332 9 197.252 8.80966 197.093 8.65625C196.934 8.5 196.69 8.38352 196.36 8.30682L195.269 8.05114C194.67 7.90909 194.229 7.68892 193.948 7.39062C193.67 7.08949 193.531 6.71307 193.531 6.26136C193.531 5.89205 193.634 5.56534 193.842 5.28125C194.052 4.99716 194.337 4.77415 194.698 4.61222C195.062 4.45028 195.474 4.36932 195.934 4.36932C196.582 4.36932 197.09 4.51136 197.46 4.79545C197.832 5.07955 198.096 5.45455 198.252 5.92045ZM200.823 8.61364L200.806 7.36932H201.01L203.874 4.45455H205.118L202.067 7.53977H201.982L200.823 8.61364ZM199.885 11V2.27273H200.891V11H199.885ZM204.044 11L201.488 7.76136L202.203 7.0625L205.323 11H204.044ZM211.049 5.92045L210.146 6.17614C210.089 6.02557 210.005 5.87926 209.894 5.73722C209.786 5.59233 209.638 5.47301 209.451 5.37926C209.263 5.28551 209.023 5.23864 208.731 5.23864C208.33 5.23864 207.996 5.33097 207.729 5.51562C207.465 5.69744 207.333 5.92898 207.333 6.21023C207.333 6.46023 207.424 6.65767 207.606 6.80256C207.788 6.94744 208.072 7.06818 208.458 7.16477L209.43 7.40341C210.015 7.54545 210.451 7.76278 210.738 8.0554C211.025 8.34517 211.168 8.71875 211.168 9.17614C211.168 9.55114 211.06 9.88636 210.844 10.1818C210.631 10.4773 210.333 10.7102 209.95 10.8807C209.566 11.0511 209.12 11.1364 208.612 11.1364C207.944 11.1364 207.391 10.9915 206.954 10.7017C206.516 10.4119 206.239 9.98864 206.123 9.43182L207.077 9.19318C207.168 9.54545 207.34 9.80966 207.593 9.9858C207.849 10.1619 208.183 10.25 208.594 10.25C209.063 10.25 209.435 10.1506 209.711 9.9517C209.989 9.75 210.129 9.50852 210.129 9.22727C210.129 9 210.049 8.80966 209.89 8.65625C209.731 8.5 209.487 8.38352 209.157 8.30682L208.066 8.05114C207.467 7.90909 207.026 7.68892 206.745 7.39062C206.467 7.08949 206.327 6.71307 206.327 6.26136C206.327 5.89205 206.431 5.56534 206.638 5.28125C206.849 4.99716 207.134 4.77415 207.495 4.61222C207.859 4.45028 208.271 4.36932 208.731 4.36932C209.379 4.36932 209.887 4.51136 210.256 4.79545C210.629 5.07955 210.893 5.45455 211.049 5.92045Z" fill="black"/>
</svg>
