<svg width="24" height="25" viewBox="0 0 24 25" fill="none" xmlns="http://www.w3.org/2000/svg">
<mask id="mask0_75597_14124" style="mask-type:alpha" maskUnits="userSpaceOnUse" x="0" y="0" width="24" height="25">
<rect y="0.96582" width="24" height="24" fill="#D9D9D9"/>
</mask>
<g mask="url(#mask0_75597_14124)">
<path d="M11.3005 15.2658L8.70046 12.6658C8.3838 12.3492 8.31296 11.9867 8.48796 11.5783C8.66296 11.17 8.97546 10.9658 9.42546 10.9658H14.5755C15.0255 10.9658 15.338 11.17 15.513 11.5783C15.688 11.9867 15.6171 12.3492 15.3005 12.6658L12.7005 15.2658C12.6005 15.3658 12.4921 15.4408 12.3755 15.4908C12.2588 15.5408 12.1338 15.5658 12.0005 15.5658C11.8671 15.5658 11.7421 15.5408 11.6255 15.4908C11.5088 15.4408 11.4005 15.3658 11.3005 15.2658Z" fill="#2A3647"/>
</g>
</svg>
