<svg width="24" height="25" viewBox="0 0 24 25" fill="none" xmlns="http://www.w3.org/2000/svg">
<mask id="mask0_75597_14130" style="mask-type:alpha" maskUnits="userSpaceOnUse" x="0" y="0" width="24" height="25">
<rect y="0.96582" width="24" height="24" fill="#D9D9D9"/>
</mask>
<g mask="url(#mask0_75597_14130)">
<path d="M12.6995 11.2659L15.2995 13.8659C15.6162 14.1826 15.687 14.5451 15.512 14.9534C15.337 15.3618 15.0245 15.5659 14.5745 15.5659H9.42454C8.97454 15.5659 8.66204 15.3618 8.48704 14.9534C8.31204 14.5451 8.38287 14.1826 8.69954 13.8659L11.2995 11.2659C11.3995 11.1659 11.5079 11.0909 11.6245 11.0409C11.7412 10.9909 11.8662 10.9659 11.9995 10.9659C12.1329 10.9659 12.2579 10.9909 12.3745 11.0409C12.4912 11.0909 12.5995 11.1659 12.6995 11.2659Z" fill="#2A3647"/>
</g>
</svg>
