<svg width="24" height="24" viewBox="0 0 24 24" fill="none" xmlns="http://www.w3.org/2000/svg">
<path d="M21 1H3C1.89543 1 1 1.89648 1 3.00105C1 3.02939 1 3.04928 1 3.05917V21.0592C1 22.1311 1.86998 23 2.94187 23C2.97009 23 2.98998 23 2.99999 23H21C21.01 23 21.0299 23 21.0581 23C22.13 23 23 22.1311 23 21.0592V3.05915C23 3.04925 23 3.02937 23 3.00104C23 1.89648 22.1046 1 21 1ZM14 21.0592H3V13.0591H14V21.0592ZM14 11.0591H3V3.05917L14 3.05915V11.0591ZM21 21.0592H16V3.05917H21V21.0592Z" fill="#42526E"/>
</svg>
