<svg width="81" height="24" viewBox="0 0 81 24" fill="none" xmlns="http://www.w3.org/2000/svg">
<mask id="mask0_187493_4275" style="mask-type:alpha" maskUnits="userSpaceOnUse" x="0" y="0" width="24" height="24">
<rect width="24" height="24" fill="#D9D9D9"/>
</mask>
<g mask="url(#mask0_187493_4275)">
<path d="M7 21C6.45 21 5.97917 20.8042 5.5875 20.4125C5.19583 20.0208 5 19.55 5 19V6C4.71667 6 4.47917 5.90417 4.2875 5.7125C4.09583 5.52083 4 5.28333 4 5C4 4.71667 4.09583 4.47917 4.2875 4.2875C4.47917 4.09583 4.71667 4 5 4H9C9 3.71667 9.09583 3.47917 9.2875 3.2875C9.47917 3.09583 9.71667 3 10 3H14C14.2833 3 14.5208 3.09583 14.7125 3.2875C14.9042 3.47917 15 3.71667 15 4H19C19.2833 4 19.5208 4.09583 19.7125 4.2875C19.9042 4.47917 20 4.71667 20 5C20 5.28333 19.9042 5.52083 19.7125 5.7125C19.5208 5.90417 19.2833 6 19 6V19C19 19.55 18.8042 20.0208 18.4125 20.4125C18.0208 20.8042 17.55 21 17 21H7ZM7 6V19H17V6H7ZM9 16C9 16.2833 9.09583 16.5208 9.2875 16.7125C9.47917 16.9042 9.71667 17 10 17C10.2833 17 10.5208 16.9042 10.7125 16.7125C10.9042 16.5208 11 16.2833 11 16V9C11 8.71667 10.9042 8.47917 10.7125 8.2875C10.5208 8.09583 10.2833 8 10 8C9.71667 8 9.47917 8.09583 9.2875 8.2875C9.09583 8.47917 9 8.71667 9 9V16ZM13 16C13 16.2833 13.0958 16.5208 13.2875 16.7125C13.4792 16.9042 13.7167 17 14 17C14.2833 17 14.5208 16.9042 14.7125 16.7125C14.9042 16.5208 15 16.2833 15 16V9C15 8.71667 14.9042 8.47917 14.7125 8.2875C14.5208 8.09583 14.2833 8 14 8C13.7167 8 13.4792 8.09583 13.2875 8.2875C13.0958 8.47917 13 8.71667 13 9V16Z" fill="#2A3647"/>
</g>
<path d="M37 17.5H33.4091V5.86364H37.1591C38.2879 5.86364 39.2538 6.09659 40.0568 6.5625C40.8598 7.02462 41.4754 7.68939 41.9034 8.55682C42.3314 9.42045 42.5455 10.4545 42.5455 11.6591C42.5455 12.8712 42.3295 13.9148 41.8977 14.7898C41.4659 15.661 40.8371 16.3314 40.0114 16.8011C39.1856 17.267 38.1818 17.5 37 17.5ZM34.8182 16.25H36.9091C37.8712 16.25 38.6686 16.0644 39.3011 15.6932C39.9337 15.322 40.4053 14.7936 40.7159 14.108C41.0265 13.4223 41.1818 12.6061 41.1818 11.6591C41.1818 10.7197 41.0284 9.91098 40.7216 9.23295C40.4148 8.55114 39.9564 8.02841 39.3466 7.66477C38.7367 7.29735 37.9773 7.11364 37.0682 7.11364H34.8182V16.25ZM48.3864 17.6818C47.5455 17.6818 46.8201 17.4962 46.2102 17.125C45.6042 16.75 45.1364 16.2273 44.8068 15.5568C44.4811 14.8826 44.3182 14.0985 44.3182 13.2045C44.3182 12.3106 44.4811 11.5227 44.8068 10.8409C45.1364 10.1553 45.5947 9.62121 46.1818 9.23864C46.7727 8.85227 47.4621 8.65909 48.25 8.65909C48.7045 8.65909 49.1534 8.73485 49.5966 8.88636C50.0398 9.03788 50.4432 9.28409 50.8068 9.625C51.1705 9.96212 51.4602 10.4091 51.6761 10.9659C51.892 11.5227 52 12.2083 52 13.0227V13.5909H45.2727V12.4318H50.6364C50.6364 11.9394 50.5379 11.5 50.3409 11.1136C50.1477 10.7273 49.8712 10.4223 49.5114 10.1989C49.1553 9.97538 48.7348 9.86364 48.25 9.86364C47.7159 9.86364 47.2538 9.99621 46.8636 10.2614C46.4773 10.5227 46.1799 10.8636 45.9716 11.2841C45.7633 11.7045 45.6591 12.1553 45.6591 12.6364V13.4091C45.6591 14.0682 45.7727 14.6269 46 15.0852C46.2311 15.5398 46.5511 15.8864 46.9602 16.125C47.3693 16.3598 47.8447 16.4773 48.3864 16.4773C48.7386 16.4773 49.0568 16.428 49.3409 16.3295C49.6288 16.2273 49.8769 16.0758 50.0852 15.875C50.2936 15.6705 50.4545 15.4167 50.5682 15.1136L51.8636 15.4773C51.7273 15.9167 51.4981 16.303 51.1761 16.6364C50.8542 16.9659 50.4564 17.2235 49.983 17.4091C49.5095 17.5909 48.9773 17.6818 48.3864 17.6818ZM55.3807 5.86364V17.5H54.0398V5.86364H55.3807ZM61.4957 17.6818C60.6548 17.6818 59.9295 17.4962 59.3196 17.125C58.7135 16.75 58.2457 16.2273 57.9162 15.5568C57.5904 14.8826 57.4276 14.0985 57.4276 13.2045C57.4276 12.3106 57.5904 11.5227 57.9162 10.8409C58.2457 10.1553 58.7041 9.62121 59.2912 9.23864C59.8821 8.85227 60.5715 8.65909 61.3594 8.65909C61.8139 8.65909 62.2628 8.73485 62.706 8.88636C63.1491 9.03788 63.5526 9.28409 63.9162 9.625C64.2798 9.96212 64.5696 10.4091 64.7855 10.9659C65.0014 11.5227 65.1094 12.2083 65.1094 13.0227V13.5909H58.3821V12.4318H63.7457C63.7457 11.9394 63.6473 11.5 63.4503 11.1136C63.2571 10.7273 62.9806 10.4223 62.6207 10.1989C62.2647 9.97538 61.8442 9.86364 61.3594 9.86364C60.8253 9.86364 60.3632 9.99621 59.973 10.2614C59.5866 10.5227 59.2893 10.8636 59.081 11.2841C58.8726 11.7045 58.7685 12.1553 58.7685 12.6364V13.4091C58.7685 14.0682 58.8821 14.6269 59.1094 15.0852C59.3404 15.5398 59.6605 15.8864 60.0696 16.125C60.4787 16.3598 60.9541 16.4773 61.4957 16.4773C61.848 16.4773 62.1662 16.428 62.4503 16.3295C62.7382 16.2273 62.9863 16.0758 63.1946 15.875C63.4029 15.6705 63.5639 15.4167 63.6776 15.1136L64.973 15.4773C64.8366 15.9167 64.6075 16.303 64.2855 16.6364C63.9635 16.9659 63.5658 17.2235 63.0923 17.4091C62.6188 17.5909 62.0866 17.6818 61.4957 17.6818ZM70.9446 8.77273V9.90909H66.4219V8.77273H70.9446ZM67.7401 6.68182H69.081V15C69.081 15.3788 69.1359 15.6629 69.2457 15.8523C69.3594 16.0379 69.5033 16.1629 69.6776 16.2273C69.8556 16.2879 70.0431 16.3182 70.2401 16.3182C70.3878 16.3182 70.509 16.3106 70.6037 16.2955C70.6984 16.2765 70.7741 16.2614 70.831 16.25L71.1037 17.4545C71.0128 17.4886 70.8859 17.5227 70.723 17.5568C70.5601 17.5947 70.3537 17.6136 70.1037 17.6136C69.7249 17.6136 69.3537 17.5322 68.9901 17.3693C68.6302 17.2064 68.331 16.9583 68.0923 16.625C67.8575 16.2917 67.7401 15.8712 67.7401 15.3636V6.68182ZM76.527 17.6818C75.6861 17.6818 74.9607 17.4962 74.3509 17.125C73.7448 16.75 73.277 16.2273 72.9474 15.5568C72.6217 14.8826 72.4588 14.0985 72.4588 13.2045C72.4588 12.3106 72.6217 11.5227 72.9474 10.8409C73.277 10.1553 73.7353 9.62121 74.3224 9.23864C74.9134 8.85227 75.6027 8.65909 76.3906 8.65909C76.8452 8.65909 77.294 8.73485 77.7372 8.88636C78.1804 9.03788 78.5838 9.28409 78.9474 9.625C79.3111 9.96212 79.6009 10.4091 79.8168 10.9659C80.0327 11.5227 80.1406 12.2083 80.1406 13.0227V13.5909H73.4134V12.4318H78.777C78.777 11.9394 78.6785 11.5 78.4815 11.1136C78.2884 10.7273 78.0118 10.4223 77.652 10.1989C77.2959 9.97538 76.8755 9.86364 76.3906 9.86364C75.8565 9.86364 75.3944 9.99621 75.0043 10.2614C74.6179 10.5227 74.3205 10.8636 74.1122 11.2841C73.9039 11.7045 73.7997 12.1553 73.7997 12.6364V13.4091C73.7997 14.0682 73.9134 14.6269 74.1406 15.0852C74.3717 15.5398 74.6918 15.8864 75.1009 16.125C75.5099 16.3598 75.9853 16.4773 76.527 16.4773C76.8793 16.4773 77.1974 16.428 77.4815 16.3295C77.7694 16.2273 78.0175 16.0758 78.2259 15.875C78.4342 15.6705 78.5952 15.4167 78.7088 15.1136L80.0043 15.4773C79.8679 15.9167 79.6387 16.303 79.3168 16.6364C78.9948 16.9659 78.5971 17.2235 78.1236 17.4091C77.6501 17.5909 77.1179 17.6818 76.527 17.6818Z" fill="#2A3647"/>
</svg>
